{
  "accessors": [
    {
      "bufferView": 2,
      "componentType": 5126,
      "count": 90,
      "max": [
        3862.492431640625,
        21401.34375,
        13306.7265625
      ],
      "min": [
        -3879.952392578125,
        14203.6376953125,
        11395.849609375
      ],
      "type": "VEC3"
    },
    {
      "bufferView": 2,
      "byteOffset": 1080,
      "componentType": 5126,
      "count": 90,
      "max": [
        0.8951815962791443,
        0.09075070917606354,
        0.9978414177894592
      ],
      "min": [
        -0.8951820731163025,
        -0.05536229535937309,
        0.4444757103919983
      ],
      "type": "VEC3"
    },
    {
      "bufferView": 1,
      "componentType": 5126,
      "count": 90,
      "max": [
        0.0,
        0.0
      ],
      "min": [
        0.0,
        0.0
      ],
      "type": "VEC2"
    },
    {
      "bufferView": 0,
      "componentType": 5125,
      "count": 90,
      "type": "SCALAR"
    },
    {
      "bufferView": 2,
      "byteOffset": 2160,
      "componentType": 5126,
      "count": 196,
      "max": [
        -5497.8349609375,
        -13283.7685546875,
        5381.1796875
      ],
      "min": [
        -6861.7197265625,
        -16866.482421875,
        1798.466796875
      ],
      "type": "VEC3"
    },
    {
      "bufferView": 2,
      "byteOffset": 4512,
      "componentType": 5126,
      "count": 196,
      "max": [
        1.0,
        0.9999986290931702,
        0.9999985694885254
      ],
      "min": [
        -1.0,
        -0.9999986290931702,
        -0.9999986290931702
      ],
      "type": "VEC3"
    },
    {
      "bufferView": 1,
      "byteOffset": 720,
      "componentType": 5126,
      "count": 196,
      "max": [
        0.8365806341171265,
        0.8442246913909912
      ],
      "min": [
        0.014999788254499435,
        0.14373986423015594
      ],
      "type": "VEC2"
    },
    {
      "bufferView": 0,
      "byteOffset": 360,
      "componentType": 5125,
      "count": 288,
      "type": "SCALAR"
    },
    {
      "bufferView": 2,
      "byteOffset": 6864,
      "componentType": 5126,
      "count": 197,
      "max": [
        6848.77685546875,
        -13274.7421875,
        5390.20751953125
      ],
      "min": [
        5484.8916015625,
        -16875.509765625,
        1789.440185546875
      ],
      "type": "VEC3"
    },
    {
      "bufferView": 2,
      "byteOffset": 9228,
      "componentType": 5126,
      "count": 197,
      "max": [
        1.0,
        0.9997720122337341,
        0.9997720122337341
      ],
      "min": [
        -1.0,
        -0.9997720122337341,
        -0.9997720122337341
      ],
      "type": "VEC3"
    },
    {
      "bufferView": 1,
      "byteOffset": 2288,
      "componentType": 5126,
      "count": 197,
      "max": [
        0.8365805745124817,
        0.8442248702049255
      ],
      "min": [
        0.014999788254499435,
        0.14373986423015594
      ],
      "type": "VEC2"
    },
    {
      "bufferView": 0,
      "byteOffset": 1512,
      "componentType": 5125,
      "count": 288,
      "type": "SCALAR"
    },
    {
      "bufferView": 2,
      "byteOffset": 11592,
      "componentType": 5126,
      "count": 219,
      "max": [
        -5412.68896484375,
        17089.75390625,
        6057.763671875
      ],
      "min": [
        -7066.29736328125,
        13055.689453125,
        2023.700439453125
      ],
      "type": "VEC3"
    },
    {
      "bufferView": 2,
      "byteOffset": 14220,
      "componentType": 5126,
      "count": 219,
      "max": [
        1.0,
        0.9999971985816956,
        0.9999971985816956
      ],
      "min": [
        -0.999685525894165,
        -0.9999971985816956,
        -0.9999971985816956
      ],
      "type": "VEC3"
    },
    {
      "bufferView": 1,
      "byteOffset": 3864,
      "componentType": 5126,
      "count": 219,
      "max": [
        0.8365806341171265,
        0.8442250490188599
      ],
      "min": [
        0.014999788254499435,
        0.14373986423015594
      ],
      "type": "VEC2"
    },
    {
      "bufferView": 0,
      "byteOffset": 2664,
      "componentType": 5125,
      "count": 288,
      "type": "SCALAR"
    },
    {
      "bufferView": 2,
      "byteOffset": 16848,
      "componentType": 5126,
      "count": 219,
      "max": [
        7039.24169921875,
        17092.197265625,
        6060.208984375
      ],
      "min": [
        5385.6328125,
        13053.2431640625,
        2021.25537109375
      ],
      "type": "VEC3"
    },
    {
      "bufferView": 2,
      "byteOffset": 19476,
      "componentType": 5126,
      "count": 219,
      "max": [
        0.999685525894165,
        0.9999756217002869,
        0.9999756217002869
      ],
      "min": [
        -1.0,
        -0.9999756813049316,
        -0.9999756813049316
      ],
      "type": "VEC3"
    },
    {
      "bufferView": 1,
      "byteOffset": 5616,
      "componentType": 5126,
      "count": 219,
      "max": [
        0.8365806341171265,
        0.8442250490188599
      ],
      "min": [
        0.014999788254499435,
        0.14373986423015594
      ],
      "type": "VEC2"
    },
    {
      "bufferView": 0,
      "byteOffset": 3816,
      "componentType": 5125,
      "count": 288,
      "type": "SCALAR"
    },
    {
      "bufferView": 2,
      "byteOffset": 22104,
      "componentType": 5126,
      "count": 11,
      "max": [
        2526.687744140625,
        9350.3681640625,
        5488.0361328125
      ],
      "min": [
        -7943.5732421875,
        9350.28125,
        5484.5029296875
      ],
      "type": "VEC3"
    },
    {
      "bufferView": 2,
      "byteOffset": 22236,
      "componentType": 5126,
      "count": 11,
      "max": [
        -7.417887104566034e-07,
        -0.9997326135635376,
        0.023127365857362747
      ],
      "min": [
        -1.4919417026248993e-06,
        -0.999760627746582,
        0.02188112400472164
      ],
      "type": "VEC3"
    },
    {
      "bufferView": 1,
      "byteOffset": 7368,
      "componentType": 5126,
      "count": 11,
      "max": [
        0.0,
        0.0
      ],
      "min": [
        0.0,
        0.0
      ],
      "type": "VEC2"
    },
    {
      "bufferView": 0,
      "byteOffset": 4968,
      "componentType": 5125,
      "count": 24,
      "type": "SCALAR"
    },
    {
      "bufferView": 2,
      "byteOffset": 22368,
      "componentType": 5126,
      "count": 3023,
      "max": [
        3179.911376953125,
        12775.810546875,
        11589.9375
      ],
      "min": [
        -8595.7431640625,
        -14047.7109375,
        5464.947265625
      ],
      "type": "VEC3"
    },
    {
      "bufferView": 2,
      "byteOffset": 58644,
      "componentType": 5126,
      "count": 3023,
      "max": [
        1.0,
        1.0,
        1.0
      ],
      "min": [
        -1.0,
        -0.9998778104782104,
        -1.0
      ],
      "type": "VEC3"
    },
    {
      "bufferView": 1,
      "byteOffset": 7456,
      "componentType": 5126,
      "count": 3023,
      "max": [
        0.9977786540985107,
        0.9985125064849854
      ],
      "min": [
        -0.00785859301686287,
        0.0027462721336632967
      ],
      "type": "VEC2"
    },
    {
      "bufferView": 0,
      "byteOffset": 5064,
      "componentType": 5125,
      "count": 5478,
      "type": "SCALAR"
    },
    {
      "bufferView": 2,
      "byteOffset": 94920,
      "componentType": 5126,
      "count": 30,
      "max": [
        7034.1142578125,
        3671.53857421875,
        9298.611328125
      ],
      "min": [
        6486.59716796875,
        3390.67138671875,
        8851.94140625
      ],
      "type": "VEC3"
    },
    {
      "bufferView": 2,
      "byteOffset": 95280,
      "componentType": 5126,
      "count": 30,
      "max": [
        0.9025042057037354,
        0.9446044564247131,
        0.894166111946106
      ],
      "min": [
        -0.9996013641357422,
        -0.9391141533851624,
        -0.886479914188385
      ],
      "type": "VEC3"
    },
    {
      "bufferView": 1,
      "byteOffset": 31640,
      "componentType": 5126,
      "count": 30,
      "max": [
        0.0,
        0.0
      ],
      "min": [
        0.0,
        0.0
      ],
      "type": "VEC2"
    },
    {
      "bufferView": 0,
      "byteOffset": 26976,
      "componentType": 5125,
      "count": 36,
      "type": "SCALAR"
    },
    {
      "bufferView": 2,
      "byteOffset": 95640,
      "componentType": 5126,
      "count": 90,
      "max": [
        2305.8330078125,
        9423.201171875,
        9093.5859375
      ],
      "min": [
        -7723.796875,
        -2190.308349609375,
        5056.1318359375
      ],
      "type": "VEC3"
    },
    {
      "bufferView": 2,
      "byteOffset": 96720,
      "componentType": 5126,
      "count": 90,
      "max": [
        0.9913082122802734,
        0.11855358630418777,
        0.992833137512207
      ],
      "min": [
        -0.9908086061477661,
        -0.9910513162612915,
        -0.999082088470459
      ],
      "type": "VEC3"
    },
    {
      "bufferView": 1,
      "byteOffset": 31880,
      "componentType": 5126,
      "count": 90,
      "max": [
        0.0,
        0.0
      ],
      "min": [
        0.0,
        0.0
      ],
      "type": "VEC2"
    },
    {
      "bufferView": 0,
      "byteOffset": 27120,
      "componentType": 5125,
      "count": 96,
      "type": "SCALAR"
    },
    {
      "bufferView": 2,
      "byteOffset": 97800,
      "componentType": 5126,
      "count": 46,
      "max": [
        2082.95947265625,
        16057.8740234375,
        8946.9921875
      ],
      "min": [
        -7500.91943359375,
        -2202.152587890625,
        5056.1318359375
      ],
      "type": "VEC3"
    },
    {
      "bufferView": 2,
      "byteOffset": 98352,
      "componentType": 5126,
      "count": 46,
      "max": [
        0.05255504325032234,
        0.9280733466148376,
        0.34593644738197327
      ],
      "min": [
        -0.052555542439222336,
        -0.9387065172195435,
        -0.9999826550483704
      ],
      "type": "VEC3"
    },
    {
      "bufferView": 1,
      "byteOffset": 32600,
      "componentType": 5126,
      "count": 46,
      "max": [
        0.0,
        0.0
      ],
      "min": [
        0.0,
        0.0
      ],
      "type": "VEC2"
    },
    {
      "bufferView": 0,
      "byteOffset": 27504,
      "componentType": 5125,
      "count": 54,
      "type": "SCALAR"
    },
    {
      "bufferView": 2,
      "byteOffset": 98904,
      "componentType": 5126,
      "count": 38,
      "max": [
        4829.70947265625,
        6900.779296875,
        7625.1494140625
      ],
      "min": [
        2791.3896484375,
        -2365.923828125,
        4261.8857421875
      ],
      "type": "VEC3"
    },
    {
      "bufferView": 2,
      "byteOffset": 99360,
      "componentType": 5126,
      "count": 38,
      "max": [
        0.9967108368873596,
        0.8784915208816528,
        -0.07911910116672516
      ],
      "min": [
        -0.9967108368873596,
        -5.651019137076219e-07,
        -1.0
      ],
      "type": "VEC3"
    },
    {
      "bufferView": 1,
      "byteOffset": 32968,
      "componentType": 5126,
      "count": 38,
      "max": [
        0.0,
        0.0
      ],
      "min": [
        0.0,
        0.0
      ],
      "type": "VEC2"
    },
    {
      "bufferView": 0,
      "byteOffset": 27720,
      "componentType": 5125,
      "count": 54,
      "type": "SCALAR"
    }
  ],
  "asset": {
    "extras": {
      "author": "zairiq-123 (https://sketchfab.com/zairiq-123)",
      "license": "CC-BY-4.0 (http://creativecommons.org/licenses/by/4.0/)",
      "source": "https://sketchfab.com/3d-models/dmc-delorean-48eb716604d14dc291cd1b8aa21d0fe9",
      "title": "dmc delorean"
    },
    "generator": "Sketchfab-16.85.0",
    "version": "2.0"
  },
  "bufferViews": [
    {
      "buffer": 0,
      "byteLength": 27936,
      "name": "floatBufferViews",
      "target": 34963
    },
    {
      "buffer": 0,
      "byteLength": 33272,
      "byteOffset": 27936,
      "byteStride": 8,
      "name": "floatBufferViews",
      "target": 34962
    },
    {
      "buffer": 0,
      "byteLength": 99816,
      "byteOffset": 61208,
      "byteStride": 12,
      "name": "floatBufferViews",
      "target": 34962
    }
  ],
  "buffers": [
    {
      "byteLength": 161024,
      "uri": "scene.bin"
    }
  ],
  "images": [
    {
      "uri": "textures/delorean1_baseColor.png"
    }
  ],
  "materials": [
    {
      "doubleSided": true,
      "name": "GREY1",
      "pbrMetallicRoughness": {
        "baseColorFactor": [
          0.784314,
          0.784314,
          0.784314,
          1.0
        ],
        "metallicFactor": 0.0,
        "roughnessFactor": 0.6
      }
    },
    {
      "doubleSided": true,
      "name": "black1",
      "pbrMetallicRoughness": {
        "baseColorFactor": [
          0.0666667,
          0.0666667,
          0.0666667,
          1.0
        ],
        "metallicFactor": 0.0,
        "roughnessFactor": 0.6
      }
    },
    {
      "doubleSided": true,
      "name": "delorean1",
      "pbrMetallicRoughness": {
        "baseColorTexture": {
          "index": 0
        },
        "metallicFactor": 0.0,
        "roughnessFactor": 0.6
      }
    }
  ],
  "meshes": [
    {
      "name": "Object_0",
      "primitives": [
        {
          "attributes": {
            "NORMAL": 1,
            "POSITION": 0,
            "TEXCOORD_0": 2
          },
          "indices": 3,
          "material": 1,
          "mode": 4
        }
      ]
    },
    {
      "name": "Object_1",
      "primitives": [
        {
          "attributes": {
            "NORMAL": 5,
            "POSITION": 4,
            "TEXCOORD_0": 6
          },
          "indices": 7,
          "material": 2,
          "mode": 4
        }
      ]
    },
    {
      "name": "Object_2",
      "primitives": [
        {
          "attributes": {
            "NORMAL": 9,
            "POSITION": 8,
            "TEXCOORD_0": 10
          },
          "indices": 11,
          "material": 2,
          "mode": 4
        }
      ]
    },
    {
      "name": "Object_3",
      "primitives": [
        {
          "attributes": {
            "NORMAL": 13,
            "POSITION": 12,
            "TEXCOORD_0": 14
          },
          "indices": 15,
          "material": 2,
          "mode": 4
        }
      ]
    },
    {
      "name": "Object_4",
      "primitives": [
        {
          "attributes": {
            "NORMAL": 17,
            "POSITION": 16,
            "TEXCOORD_0": 18
          },
          "indices": 19,
          "material": 2,
          "mode": 4
        }
      ]
    },
    {
      "name": "Object_5",
      "primitives": [
        {
          "attributes": {
            "NORMAL": 21,
            "POSITION": 20,
            "TEXCOORD_0": 22
          },
          "indices": 23,
          "material": 0,
          "mode": 4
        }
      ]
    },
    {
      "name": "Object_6",
      "primitives": [
        {
          "attributes": {
            "NORMAL": 25,
            "POSITION": 24,
            "TEXCOORD_0": 26
          },
          "indices": 27,
          "material": 2,
          "mode": 4
        }
      ]
    },
    {
      "name": "Object_7",
      "primitives": [
        {
          "attributes": {
            "NORMAL": 29,
            "POSITION": 28,
            "TEXCOORD_0": 30
          },
          "indices": 31,
          "material": 1,
          "mode": 4
        }
      ]
    },
    {
      "name": "Object_8",
      "primitives": [
        {
          "attributes": {
            "NORMAL": 33,
            "POSITION": 32,
            "TEXCOORD_0": 34
          },
          "indices": 35,
          "material": 0,
          "mode": 4
        }
      ]
    },
    {
      "name": "Object_9",
      "primitives": [
        {
          "attributes": {
            "NORMAL": 37,
            "POSITION": 36,
            "TEXCOORD_0": 38
          },
          "indices": 39,
          "material": 1,
          "mode": 4
        }
      ]
    },
    {
      "name": "Object_10",
      "primitives": [
        {
          "attributes": {
            "NORMAL": 41,
            "POSITION": 40,
            "TEXCOORD_0": 42
          },
          "indices": 43,
          "material": 0,
          "mode": 4
        }
      ]
    }
  ],
  "nodes": [
    {
      "children": [
        1
      ],
      "matrix": [
        1.0,
        0.0,
        0.0,
        0.0,
        0.0,
        2.220446049250313e-16,
        -1.0,
        0.0,
        0.0,
        1.0,
        2.220446049250313e-16,
        0.0,
        0.0,
        0.0,
        0.0,
        1.0
      ],
      "name": "Sketchfab_model"
    },
    {
      "children": [
        2,
        5,
        8,
        11,
        14,
        17,
        21,
        24,
        28
      ],
      "name": "3d-model.3ds"
    },
    {
      "children": [
        3
      ],
      "matrix": [
        -1.0,
        0.0,
        0.0,
        -0.0,
        0.0,
        1.0,
        -5.642599489874556e-07,
        0.0,
        0.0,
        5.642599489874556e-07,
        1.0,
        0.0,
        -28.397705078125,
        8848.501953125,
        6175.9423828125,
        1.0
      ],
      "name": "Group_001"
    },
    {
      "children": [
        4
      ],
      "matrix": [
        -1.0,
        -0.0,
        -0.0,
        0.0,
        0.0,
        0.9999999999996816,
        5.642599489872759e-07,
        0.0,
        0.0,
        -5.642599489872759e-07,
        0.9999999999996816,
        0.0,
        -8.7298583984375,
        -17802.48479641025,
        -12351.296985040794,
        1.0
      ],
      "name": "3DSMeshMatrix"
    },
    {
      "mesh": 0,
      "name": "Object_4"
    },
    {
      "children": [
        6
      ],
      "matrix": [
        -7.627230167388916,
        0.0,
        0.0,
        -0.0,
        0.0,
        7.627230167388916,
        -4.303740297473269e-06,
        0.0,
        0.0,
        4.303740297473269e-06,
        7.627230167388916,
        0.0,
        -4751.7099609375,
        -7587.533203125,
        1800.3836669921875,
        1.0
      ],
      "name": "wheel1#1_0"
    },
    {
      "children": [
        7
      ],
      "matrix": [
        -0.13110919403948407,
        0.0,
        -0.0,
        0.0,
        0.0,
        0.13110919403944232,
        7.397966357031508e-08,
        0.0,
        0.0,
        -7.397966357031508e-08,
        0.13110919403944232,
        0.0,
        -810.2256208562633,
        1976.4878179783486,
        -470.6577251544911,
        1.0
      ],
      "name": "3DSMeshMatrix"
    },
    {
      "mesh": 1,
      "name": "Object_7"
    },
    {
      "children": [
        9
      ],
      "matrix": [
        -7.627230167388916,
        0.0,
        0.0,
        -0.0,
        0.0,
        7.627230167388916,
        -4.303740297473269e-06,
        0.0,
        0.0,
        4.303740297473269e-06,
        7.627230167388916,
        0.0,
        4738.76708984375,
        -7587.533203125,
        1800.3839111328125,
        1.0
      ],
      "name": "wheel2\t#1_"
    },
    {
      "children": [
        10
      ],
      "matrix": [
        -0.13110919403948407,
        0.0,
        -0.0,
        0.0,
        0.0,
        0.13110919403944232,
        7.397966357031508e-08,
        0.0,
        0.0,
        -7.397966357031508e-08,
        0.13110919403944232,
        0.0,
        808.5286304234486,
        1976.4878179783668,
        -470.6577876811499,
        1.0
      ],
      "name": "3DSMeshMatrix"
    },
    {
      "mesh": 2,
      "name": "Object_10"
    },
    {
      "children": [
        12
      ],
      "matrix": [
        -7.627230167388916,
        0.0,
        0.0,
        -0.0,
        0.0,
        7.627230167388916,
        -4.303740297473269e-06,
        0.0,
        0.0,
        4.303740297473269e-06,
        7.627230167388916,
        0.0,
        -4572.7197265625,
        7486.3896484375,
        2025.8416748046875,
        1.0
      ],
      "name": "wheel3\t#1_"
    },
    {
      "children": [
        13
      ],
      "matrix": [
        -0.13110919403948407,
        -0.0,
        -0.0,
        0.0,
        0.0,
        0.13110919403944232,
        7.397966357031508e-08,
        0.0,
        0.0,
        -7.397966357031508e-08,
        0.13110919403944232,
        0.0,
        -818.0548795342703,
        -1976.1719364429664,
        -529.7782572066035,
        1.0
      ],
      "name": "3DSMeshMatrix"
    },
    {
      "mesh": 3,
      "name": "Object_13"
    },
    {
      "children": [
        15
      ],
      "matrix": [
        -7.627230167388916,
        0.0,
        0.0,
        -0.0,
        0.0,
        7.627230167388916,
        -4.303740297473269e-06,
        0.0,
        0.0,
        4.303740297473269e-06,
        7.627230167388916,
        0.0,
        4545.6640625,
        7486.390625,
        2025.8419189453125,
        1.0
      ],
      "name": "wheel4\t#1_"
    },
    {
      "children": [
        16
      ],
      "matrix": [
        -0.13110919403948407,
        -0.0,
        -0.0,
        0.0,
        0.0,
        0.13110919403944232,
        7.397966357031508e-08,
        0.0,
        0.0,
        -7.397966357031508e-08,
        0.13110919403944232,
        0.0,
        814.5076332248328,
        -1976.1721865495833,
        -529.7783197333345,
        1.0
      ],
      "name": "3DSMeshMatrix"
    },
    {
      "mesh": 4,
      "name": "Object_16"
    },
    {
      "children": [
        18
      ],
      "matrix": [
        7.627230167388916,
        -4.303740297473269e-06,
        6.667924594694341e-07,
        0.0,
        -4.303740297473269e-06,
        -7.627230167388916,
        -4.303740297473269e-06,
        -0.0,
        -6.667948468930263e-07,
        -4.303740297473269e-06,
        7.627230167388916,
        0.0,
        0.0,
        0.0,
        4269.19384765625,
        1.0
      ],
      "name": "DELOREAN#1"
    },
    {
      "children": [
        19,
        20
      ],
      "matrix": [
        0.13110919403944232,
        -7.397966357029153e-08,
        -4.17437600662101e-14,
        0.0,
        -7.397966357031509e-08,
        -0.13110919403940058,
        -7.397966357029153e-08,
        0.0,
        2.9504813324165298e-21,
        -7.397966357031509e-08,
        0.13110919403944232,
        0.0,
        355.032470703125,
        -83.37850649313559,
        -1118.025791615138,
        1.0
      ],
      "name": "3DSMeshMatrix"
    },
    {
      "mesh": 5,
      "name": "Object_19"
    },
    {
      "mesh": 6,
      "name": "Object_20"
    },
    {
      "children": [
        22
      ],
      "matrix": [
        7.627230167388916,
        -4.303740297473269e-06,
        6.667924594694341e-07,
        0.0,
        -4.303740297473269e-06,
        -7.627230167388916,
        -4.303740297473269e-06,
        -0.0,
        -6.667948468930263e-07,
        -4.303740297473269e-06,
        7.627230167388916,
        0.0,
        4734.134765625,
        2083.52880859375,
        4543.11181640625,
        1.0
      ],
      "name": "Box05_001"
    },
    {
      "children": [
        23
      ],
      "matrix": [
        0.13110919403944232,
        -7.397966357029153e-08,
        -4.17437600662101e-14,
        0.0,
        -7.397966357031509e-08,
        -0.13110919403940058,
        -7.397966357029153e-08,
        0.0,
        2.9504813324165298e-21,
        -7.397966357031509e-08,
        0.13110919403944232,
        0.0,
        -886.344536868547,
        462.9614848051801,
        -1189.8519485645697,
        1.0
      ],
      "name": "3DSMeshMatrix"
    },
    {
      "mesh": 7,
      "name": "Object_23"
    },
    {
      "children": [
        25
      ],
      "matrix": [
        7.627230167388916,
        -4.303740297473269e-06,
        6.667924594694341e-07,
        0.0,
        -4.303740297473269e-06,
        -7.627230167388916,
        -4.303740297473269e-06,
        -0.0,
        -6.667948468930263e-07,
        -4.303740297473269e-06,
        7.627230167388916,
        0.0,
        -0.53466796875,
        3781.9052734375,
        3542.904541015625,
        1.0
      ],
      "name": "interior#1"
    },
    {
      "children": [
        26,
        27
      ],
      "matrix": [
        0.13110919403944232,
        -7.397966357029153e-08,
        -4.17437600662101e-14,
        0.0,
        -7.397966357031509e-08,
        -0.13110919403940058,
        -7.397966357029153e-08,
        0.0,
        2.9504813324165298e-21,
        -7.397966357031509e-08,
        0.13110919403944232,
        0.0,
        355.17297976819754,
        908.3064984791122,
        -927.5790395963779,
        1.0
      ],
      "name": "3DSMeshMatrix"
    },
    {
      "mesh": 8,
      "name": "Object_26"
    },
    {
      "mesh": 9,
      "name": "Object_27"
    },
    {
      "children": [
        29
      ],
      "matrix": [
        7.627230167388916,
        -4.303740297473269e-06,
        6.667924594694341e-07,
        0.0,
        -4.303740297473269e-06,
        -7.627230167388916,
        -4.303740297473269e-06,
        -0.0,
        -6.667948468930263e-07,
        -4.303740297473269e-06,
        7.627230167388916,
        0.0,
        3259.23193359375,
        1451.68896484375,
        2977.232421875,
        1.0
      ],
      "name": "i_center_0"
    },
    {
      "children": [
        30
      ],
      "matrix": [
        0.13110919403944232,
        -7.397966357029153e-08,
        -4.17437600662101e-14,
        0.0,
        -7.397966357031509e-08,
        -0.13110919403940058,
        -7.397966357029153e-08,
        0.0,
        2.9504813324165298e-21,
        -7.397966357031509e-08,
        0.13110919403944232,
        0.0,
        -499.59796337271837,
        297.2812050588328,
        -779.2496319494528,
        1.0
      ],
      "name": "3DSMeshMatrix"
    },
    {
      "mesh": 10,
      "name": "Object_30"
    }
  ],
  "samplers": [
    {
      "magFilter": 9729,
      "minFilter": 9987,
      "wrapS": 10497,
      "wrapT": 10497
    }
  ],
  "scene": 0,
  "scenes": [
    {
      "name": "Sketchfab_Scene",
      "nodes": [
        0
      ]
    }
  ],
  "textures": [
    {
      "sampler": 0,
      "source": 0
    }
  ]
}
